<svg width="208" height="136" viewBox="0 0 208 136" fill="none" xmlns="http://www.w3.org/2000/svg">
<g clip-path="url(#clip0_6_13)">
<path fill-rule="evenodd" clip-rule="evenodd" d="M168.04 135.896C152.538 11.6439 86.1133 0.0518646 86.1133 0.0518646H66.9242C66.9242 0.0518646 133.33 11.6439 148.831 135.896H168.04Z" fill="black"/>
<path fill-rule="evenodd" clip-rule="evenodd" d="M0.0996857 49.9981V135.896H6.2862C6.2862 135.896 11.0518 93.7075 37.755 64.0616C37.9239 63.8741 37.9195 63.653 37.7431 63.58C35.5883 61.2084 22.2328 48.741 0.0996857 49.9981Z" fill="black"/>
<path fill-rule="evenodd" clip-rule="evenodd" d="M80.7078 135.808C58.5 34.5 0.38341 38.2258 0.38341 38.2258L0.191513 6.1467C0.191513 6.1467 76 23.5 91.635 135.808H80.7078Z" fill="black"/>
<path fill-rule="evenodd" clip-rule="evenodd" d="M202.716 106.527C201.247 100.296 199.394 93.4153 197.071 86.234C196.994 85.9956 196.744 85.8548 196.54 85.9159C182.923 89.5026 174.565 100.335 171.039 106.158C170.938 106.261 170.918 106.383 170.942 106.502C172.425 113.668 173.673 121.302 174.639 129.433C174.695 129.904 175.334 130.015 175.54 129.587C179.373 121.62 189.093 111.965 202.414 107.084C202.719 107.056 202.772 106.763 202.716 106.527Z" fill="black"/>
<path fill-rule="evenodd" clip-rule="evenodd" d="M195.277 80.9071C192.92 74.1763 190.147 67.2641 186.89 60.4441C186.788 60.2307 186.679 60.1228 186.318 60.1923C171.84 64.6528 165.542 73.8484 163.301 78.1627C163.24 78.2789 163.231 78.4142 163.275 78.5377C165.525 84.9708 167.574 91.9133 169.362 99.4012C169.459 99.8071 169.991 100.069 170.221 99.5572C173.759 94.1981 181.076 86.1998 195.089 81.5174C195.229 81.4323 195.528 81.1588 195.277 80.9071Z" fill="black"/>
<path fill-rule="evenodd" clip-rule="evenodd" d="M135.986 29.3666C140.551 34.7111 145.066 40.9765 149.39 48.3025C149.582 48.6267 150.053 48.7372 150.225 48.2775C155.156 38.6534 163.712 34.3805 168.965 32.5874C169.302 32.6362 169.389 32.2155 169.181 31.8353C163.46 24.7681 156.921 18.3975 149.451 13.1807C149.318 13.0877 149.146 13.1198 148.996 13.1303C144.979 14.9293 137.994 19.0734 135.883 28.9576C135.852 29.1025 135.89 29.2538 135.986 29.3666Z" fill="black"/>
<path fill-rule="evenodd" clip-rule="evenodd" d="M171.424 35.3202C166.356 37.6881 157.8 42.766 152.019 52.5022C151.932 52.5919 151.929 52.772 152.01 52.9205C155.154 58.7007 158.15 65.0885 160.905 72.1371C161.057 72.527 161.597 72.5462 161.779 72.1695C167.263 60.8592 177.347 56.8887 183.75 55.4963C184.059 55.4292 184.219 55.0875 184.073 54.8076C180.567 48.1058 176.626 41.5699 172.006 35.468C171.871 35.2874 171.629 35.2261 171.424 35.3202Z" fill="black"/>
<path fill-rule="evenodd" clip-rule="evenodd" d="M119.597 0.412034C118.953 0.28487 118.328 0.164238 117.675 0.0518646H95.9267C95.9267 0.0518646 103.026 2.05575 113.021 8.69689C113.288 8.87419 113.648 8.74511 113.741 8.43796C114.348 6.42293 115.874 3.01428 119.597 0.412034Z" fill="black"/>
<path fill-rule="evenodd" clip-rule="evenodd" d="M175.335 135.851C175.336 135.866 175.338 135.88 175.339 135.895H175.36L175.335 135.851Z" fill="black"/>
<path fill-rule="evenodd" clip-rule="evenodd" d="M177.115 135.896H207.361C207.644 135.896 207.865 135.652 207.835 135.37C207.601 133.14 206.546 124.004 203.825 111.433C203.763 111.146 203.458 110.98 203.185 111.088C189.309 116.577 179.562 127.199 176.665 135.258C176.553 135.569 176.786 135.896 177.115 135.896Z" fill="black"/>
<path fill-rule="evenodd" clip-rule="evenodd" d="M144.756 10.1222C138.666 6.46999 132.023 3.56385 124.76 1.61394C124.67 1.57514 124.459 1.60607 124.341 1.69942C122.256 3.45033 118.931 6.60407 117.186 11.1964C117.111 11.3948 117.178 11.6186 117.348 11.7452C121.968 15.2789 127.017 19.5561 132.159 25.0663C132.403 25.3281 132.836 25.2401 132.956 24.9026C134.453 20.7129 137.878 13.7306 144.673 10.9751C145.039 10.8268 145.077 10.3256 144.756 10.1222Z" fill="black"/>
<path fill-rule="evenodd" clip-rule="evenodd" d="M111.612 43.2977C91.8519 36.5546 75.8863 39.2892 67.2774 43.9797C67.0324 44.1132 66.9515 44.4251 67.162 44.6597C70.9706 50.6339 74.7403 57.4066 78.305 65.0848C78.5607 65.3384 78.7302 65.4373 78.9729 65.2994C84.7586 62.02 99.42 56.1795 122.191 64.1011C122.519 64.2393 122.925 63.8355 122.714 63.4526C119.326 55.9525 115.666 49.3325 111.86 43.4904C111.801 43.4003 111.714 43.3325 111.612 43.2977Z" fill="black"/>
<path fill-rule="evenodd" clip-rule="evenodd" d="M138.349 117.241C137.066 109.531 135.606 102.326 133.889 95.5926C133.779 95.4418 133.671 95.3193 133.526 95.2638C118.572 89.5462 98.1856 90.8845 90.1278 95.7615C89.9419 95.8742 89.8545 96.0963 89.971 96.3051C92.0376 103.466 94.1118 111.16 95.8027 119.425C95.7446 119.759 96.1317 119.919 96.4106 119.724C103.397 114.839 118.913 111.178 137.724 117.772C138.064 117.892 138.409 117.598 138.349 117.241Z" fill="black"/>
<path fill-rule="evenodd" clip-rule="evenodd" d="M81.5876 12.0416C77.825 9.62719 72.7693 6.81959 69.892 5.37142C69.8472 5.34799 69.8008 5.33262 69.7509 5.32436C61.4187 3.93939 43.4291 2.8583 31.9877 8.36765C31.6507 8.53438 31.6312 9.00981 31.9532 9.20401C35.758 11.4981 39.8428 14.3651 44.065 17.946C44.2473 18.1009 44.5145 18.0978 44.6918 17.9372C48.7667 14.247 58.8895 8.76278 81.2442 12.9133C81.7582 13.0086 82.0277 12.3239 81.5876 12.0416Z" fill="black"/>
<path fill-rule="evenodd" clip-rule="evenodd" d="M132.195 89.5971C130.137 82.3893 127.843 75.7578 125.37 69.6572C125.32 69.5325 125.219 69.4349 125.093 69.388C102.169 60.8331 87.1171 66.2278 80.8169 69.631C80.5995 69.7486 80.509 70.0114 80.6066 70.2386C83.3597 76.6748 85.9688 83.6398 88.424 91.2704C88.4704 91.5539 88.7932 91.6892 89.0556 91.5503C95.0752 88.5345 110.559 82.3495 131.571 90.1755C131.937 90.3117 132.303 89.9726 132.195 89.5971Z" fill="black"/>
<path fill-rule="evenodd" clip-rule="evenodd" d="M138.928 122.547C119.815 115.593 103.998 119.253 96.892 124.187C96.7493 124.319 96.674 124.456 96.6924 124.629L97.2863 130.176L97.8528 135.469C97.8789 135.712 98.0832 135.896 98.3267 135.896H140.405C140.612 135.896 140.833 135.649 140.803 135.366C140.349 131.087 139.825 126.942 139.238 122.928C139.213 122.825 139.093 122.607 138.928 122.547Z" fill="black"/>
<path fill-rule="evenodd" clip-rule="evenodd" d="M54.0877 0.0518646H4.29746C3.34794 0.0518646 15.2954 0.493288 26.7223 6.2996C26.8974 6.38854 27.1081 6.36203 27.2547 6.2318C29.5878 4.16106 37.3767 1.59762 54.0877 0.0518646Z" fill="black"/>
<path fill-rule="evenodd" clip-rule="evenodd" d="M107.796 37.6105C102.097 29.8399 96.1804 23.6594 90.443 18.7486C90.3849 18.6988 90.3174 18.6645 90.2433 18.773C81.9741 16.688 58.4127 12.1011 47.6926 20.4134C47.4589 20.5946 47.4426 20.9705 47.659 21.2567C53.1433 26.2518 58.7856 32.5949 64.2866 40.47C64.4403 40.6901 64.7436 40.9018 64.9591 40.581C71.8597 35.4562 90.083 32.5576 107.257 38.3457C107.7 38.4947 108.072 37.9874 107.796 37.6105Z" fill="black"/>
</g>
<defs>
<clipPath id="clip0_6_13">
<rect width="208" height="136" fill="white"/>
</clipPath>
</defs>
</svg>
